<svg width="9" height="14" viewBox="0 0 9 14" fill="none" xmlns="http://www.w3.org/2000/svg">
<path d="M8.39337 6.77202C7.90346 6.14481 7.28346 5.53517 6.76425 5.45928C6.24504 5.3834 5.90598 5.55933 5.18311 6.25872C4.78818 6.64088 0.497479 10.9298 0.291565 11.2843C0.0856514 11.6387 0.0336497 11.9927 0.253892 12.3724C0.466729 12.7393 1.08898 13.4791 1.69754 13.772C2.17087 13.9998 2.56225 14.0746 3.27756 13.4324C3.84201 12.9257 8.09746 8.67427 8.51041 7.92655C8.73726 7.5162 8.65145 7.10246 8.39337 6.77202Z" fill="white"/>
<path d="M7.65479 8.75338C8.28154 8.26312 8.89075 7.64268 8.96658 7.12309C9.04241 6.6035 8.8666 6.2642 8.16772 5.54081C7.78584 5.1456 3.1799 0.531509 2.82571 0.325608C2.47152 0.119546 2.11781 0.0675065 1.73834 0.287908C1.37176 0.500898 0.632462 1.1236 0.339771 1.7326C0.112123 2.20627 0.0374209 2.59793 0.679151 3.31375C1.22541 3.92308 5.77628 8.46966 6.50109 8.87067C6.91131 9.09752 7.32474 9.01165 7.65479 8.75338Z" fill="white"/>
</svg>
